<svg width="512" height="512" viewBox="0 0 512 512" xmlns="http://www.w3.org/2000/svg" role="img" aria-label="Jannati AI Tutor logo"><defs><linearGradient id="bg" x1="80" y1="40" x2="440" y2="480" gradientUnits="userSpaceOnUse"><stop stop-color="#0EA75A"/><stop offset="1" stop-color="#087A3B"/></linearGradient><linearGradient id="leaf" x1="170" y1="120" x2="342" y2="330" gradientUnits="userSpaceOnUse"><stop stop-color="#F8FFF8"/><stop offset="1" stop-color="#EAFFF0"/></linearGradient></defs><rect width="512" height="512" rx="112" fill="url(#bg)"/><path d="M256 94c80 42 132 110 132 180 0 76-58 138-132 138s-132-62-132-138c0-70 52-138 132-180Z" fill="url(#leaf)"/><path d="M256 147v211" stroke="#087A3B" stroke-width="20" stroke-linecap="round"/><path d="M256 236c-52-3-88-24-108-64 58-5 94 16 108 64Zm0 52c52-3 88-24 108-64-58-5-94 16-108 64Z" fill="#087A3B"/><circle cx="256" cy="376" r="28" fill="#F4C542"/><text x="256" y="454" text-anchor="middle" font-family="Arial, sans-serif" font-size="36" font-weight="800" letter-spacing="2" fill="#FFFFFF">JANNATI</text></svg>
