<svg width="512" height="512" viewBox="0 0 512 512" xmlns="http://www.w3.org/2000/svg" role="img" aria-label="Jannati app icon"><defs><linearGradient id="bg" x1="80" y1="40" x2="440" y2="480" gradientUnits="userSpaceOnUse"><stop stop-color="#0EA75A"/><stop offset="1" stop-color="#087A3B"/></linearGradient></defs><rect width="512" height="512" rx="112" fill="url(#bg)"/><path d="M256 86c84 44 138 116 138 190 0 80-61 144-138 144s-138-64-138-144c0-74 54-146 138-190Z" fill="#F8FFF8"/><path d="M256 144v228" stroke="#087A3B" stroke-width="24" stroke-linecap="round"/><path d="M256 236c-56-2-96-27-118-72 64-5 104 18 118 72Zm0 58c56-2 96-27 118-72-64-5-104 18-118 72Z" fill="#087A3B"/><circle cx="256" cy="386" r="32" fill="#F4C542"/></svg>
